<?xml version="1.0" encoding="UTF-8"?>
<!DOCTYPE svg PUBLIC "-//W3C//DTD SVG 1.1//EN" "http://www.w3.org/Graphics/SVG/1.1/DTD/svg11.dtd">
<!-- Creator: CorelDRAW (Versão de avaliação) -->
<svg xmlns="http://www.w3.org/2000/svg" xml:space="preserve" width="86.6986mm" height="86.6986mm" version="1.1" style="shape-rendering:geometricPrecision; text-rendering:geometricPrecision; image-rendering:optimizeQuality; fill-rule:evenodd; clip-rule:evenodd"
viewBox="0 0 8669.86 8669.86"
 xmlns:xlink="http://www.w3.org/1999/xlink"
 xmlns:xodm="http://www.corel.com/coreldraw/odm/2003">
 <defs>
  <style type="text/css">
   <![CDATA[
    .fil0 {fill:#1D4ED8}
    .fil1 {fill:#3B82F6}
   ]]>
  </style>
 </defs>
 <g id="Layer_x0020_1">
  <metadata id="CorelCorpID_0Corel-Layer"/>
  <g id="_1756388296">
   <path class="fil0" d="M3018.62 3540.78c-161.6,-78.06 -214.32,-111.66 -243.58,-128.76 -29.28,-17.1 -35.08,-17.68 -37.4,-14.78 -2.31,2.9 -1.17,9.26 -1.44,211.24 -0.29,201.98 -2.04,599.56 -6.38,809.95 -4.34,210.37 -11.31,233.54 -27.82,247.75 -16.52,14.2 -42.59,19.42 -64.91,18.83 -22.31,-0.59 -40.86,-6.95 -151.83,-62.59 -110.99,-55.64 -314.41,-160.53 -420.46,-219.93 -106.07,-59.41 -114.77,-73.33 -122.3,-89.84 -7.54,-16.52 -13.91,-35.65 -17.95,-68.68 -4.07,-33.04 -5.82,-79.98 -6.09,-273.25 -0.3,-193.3 0.86,-532.92 1.44,-714.59 0.58,-181.7 0.58,-205.47 -1.44,-220.83 -2.05,-15.35 -6.09,-22.31 -23.76,-31.86 -17.68,-9.58 -48.99,-21.74 -235.88,-108.37 -186.91,-86.66 -529.42,-247.79 -710.54,-330.36 -181.11,-82.59 -200.8,-86.66 -224.55,-86.93 -23.78,-0.29 -51.6,3.17 -73.04,12.75 -21.44,9.55 -36.52,25.21 -49.56,39.7 -13.03,14.48 -24.04,27.81 -28.68,59.4 -4.64,31.58 -2.89,81.42 -3.48,168.94 -0.58,87.51 -3.48,212.7 -5,788.6 -1.52,575.9 -1.65,1602.53 3.34,2132.07 5,529.51 15.14,561.97 30.34,594.91 15.21,32.95 35.5,66.38 62.37,103.9 26.86,37.5 60.29,79.05 113.51,118.6 53.22,39.53 126.22,77.05 283.34,153.07 157.12,76.03 398.38,190.56 898.63,434.35 500.26,243.79 1259.5,616.83 1645.72,803.34 386.21,186.53 399.4,186.53 423.22,182.97 23.82,-3.54 58.29,-10.63 84.66,-27.36 26.34,-16.72 44.57,-43.06 55.22,-76.01 10.65,-32.94 13.69,-72.49 15.22,-354.3 1.52,-281.8 1.52,-805.87 2.03,-1356.81 0.51,-550.94 1.51,-1128.76 1.89,-1456.01 0.39,-327.28 0.15,-404.03 -8.78,-463.47 -8.96,-59.45 -26.58,-101.62 -50.34,-146.07 -23.78,-44.47 -53.66,-91.21 -90.45,-131.07 -36.79,-39.87 -80.49,-72.84 -133.74,-104.26 -53.28,-31.44 -116.14,-61.31 -282.8,-137.51 -166.65,-76.19 -437.12,-198.68 -598.73,-276.73z"/>
   <path class="fil1" d="M5153.58 7902.2c181.32,-88.17 511.02,-243.82 677.4,-324.33 166.36,-80.51 169.45,-85.87 170.98,-91.63 1.53,-5.74 1.53,-11.88 0.77,-272.58 -0.77,-260.68 -2.3,-775.9 -3.45,-1043.48 -1.15,-267.59 -1.94,-287.54 -8.45,-295.58 -6.52,-8.05 -18.77,-4.21 -106.94,37.2 -88.19,41.4 -252.25,120.36 -341.57,159.08 -89.34,38.73 -103.9,37.18 -116.94,29.52 -13.03,-7.68 -24.54,-21.47 -31.43,-39.87 -6.91,-18.4 -9.2,-41.4 -4.59,-66.31 4.59,-24.92 16.07,-51.76 83.55,-184.39 67.48,-132.66 190.93,-371.11 343.89,-674.72 152.96,-303.63 335.42,-672.43 431.26,-862.57 95.85,-190.16 105.04,-201.65 116.54,-208.15 11.51,-6.53 25.31,-8.08 42.19,-7.31 16.87,0.76 36.79,3.85 52.53,13.43 15.71,9.57 27.2,25.69 188.22,194.37 161,168.68 471.52,489.92 628.32,654.01 156.79,164.08 159.87,170.97 162.16,185.15 2.3,14.19 3.84,35.67 0.77,54.44 -3.06,18.78 -10.74,34.9 -25.69,51 -14.95,16.09 -37.17,32.2 -126.87,73.6 -89.72,41.4 -246.91,108.1 -330.1,143.37 -83.2,35.26 -92.38,39.11 -96.6,48.31 -4.23,9.19 -3.44,23.76 -1.53,288.28 1.92,264.53 4.98,778.99 6.9,1039.28 1.91,260.31 2.68,266.45 8.05,269.52 5.37,3.06 15.34,3.06 207.41,-90.11 192.05,-93.14 566.22,-279.47 769.01,-387.58 202.78,-108.1 234.24,-137.99 262.22,-176.7 27.99,-38.73 52.51,-86.27 70.16,-133.42 17.63,-47.15 28.37,-93.93 31.83,-709.59 3.45,-615.68 -0.4,-1800.28 -4.23,-2399.47 -3.83,-599.19 -7.67,-613 -16.86,-629.47 -9.21,-16.49 -23.78,-35.67 -46,-50.62 -22.25,-14.95 -52.16,-25.67 -92.4,-26.82 -40.25,-1.14 -90.87,7.28 -634.84,261.84 -544,254.56 -1581.38,755.21 -2116.17,1022.03 -534.78,266.82 -567,299.81 -593.82,336.61 -26.84,36.79 -48.31,77.42 -65.94,120.35 -17.63,42.93 -31.43,88.19 -39.47,241.15 -8.06,152.96 -10.38,413.64 -11.91,736.81 -1.53,323.18 -2.29,708.85 -3.83,1093.35 -1.53,384.51 -3.83,767.88 -4.59,1048.1 -0.77,280.24 0,457.36 4.99,558.18 4.98,100.82 14.17,125.36 30.29,142.99 16.1,17.65 39.09,28.37 70.15,34.11 31.05,5.76 70.14,6.53 107.72,0.39 37.57,-6.13 73.59,-19.17 108.11,-36.03 34.5,-16.86 67.47,-37.58 248.8,-125.74z"/>
   <path class="fil0" d="M2803.49 2335.32c-374.09,178.03 -518.78,250.71 -596.13,289.71 -77.36,39.02 -87.35,44.35 -99.69,43.36 -12.35,-1 -27.01,-8.35 -223.71,-105.03 -196.71,-96.68 -575.48,-282.73 -769.17,-384.08 -193.71,-101.36 -202.39,-118.03 -206.71,-137.03 -4.34,-19 -4.34,-40.35 2.01,-59.35 6.32,-19 18.99,-35.68 72.67,-70 53.67,-34.35 148.37,-86.37 691.49,-342.09 543.1,-255.73 1534.66,-715.15 2044.78,-948.86 510.11,-233.73 538.76,-241.72 578.78,-245.05 40,-3.34 91.34,-2.01 137.69,2 46.34,3.99 87.67,10.65 133.03,24 45.34,13.32 94.68,33.34 286.05,120.69 191.38,87.34 524.78,242.06 698.17,321.4 173.36,79.35 186.69,83.36 182.02,91.03 -4.66,7.66 -27.33,18.99 -255.37,128.68 -228.05,109.69 -661.5,317.74 -1179.93,563.47 -518.45,245.71 -1121.9,529.1 -1495.98,707.15z"/>
   <path class="fil0" d="M3426.72 2785.62c-218.63,102.06 -358.38,164.12 -430.28,196.3 -71.93,32.18 -75.97,34.49 -75.39,38.85 0.57,4.34 5.8,10.73 216.01,112.22 210.21,101.48 625.42,298.05 846.08,400.98 220.63,102.94 246.74,112.22 280.96,119.77 34.2,7.53 76.54,13.33 136.27,12.17 59.72,-1.16 136.86,-9.29 229.06,-39.45 92.2,-30.15 199.49,-82.33 359.83,-160.91 160.33,-78.58 373.73,-183.54 746.32,-363.01 372.57,-179.49 904.36,-433.47 1285.64,-619.33 381.27,-185.87 612.08,-303.59 731.25,-369.99 119.16,-66.4 126.71,-81.48 129.9,-99.45 3.17,-17.98 2.02,-38.85 -27.26,-66.4 -29.3,-27.55 -86.69,-61.75 -189.33,-115.39 -102.65,-53.66 -250.52,-126.71 -436.09,-214.27 -185.58,-87.57 -408.82,-189.63 -528.28,-245.29 -119.47,-55.68 -135.13,-64.96 -151.94,-65.82 -16.83,-0.88 -34.81,6.66 -147.88,58.27 -113.09,51.61 -321.26,147.29 -697.32,327.06 -376.06,179.76 -920.02,443.62 -1340.73,646.6 -420.72,202.95 -718.2,345.03 -936.82,447.09z"/>
  </g>
 </g>
</svg>
