<?xml version="1.0" encoding="UTF-8"?>
<!DOCTYPE svg PUBLIC "-//W3C//DTD SVG 1.1//EN" "http://www.w3.org/Graphics/SVG/1.1/DTD/svg11.dtd">
<!-- Creator: CorelDRAW (Versão de avaliação) -->
<svg xmlns="http://www.w3.org/2000/svg" xml:space="preserve" width="86.6986mm" height="86.6986mm" version="1.1" style="shape-rendering:geometricPrecision; text-rendering:geometricPrecision; image-rendering:optimizeQuality; fill-rule:evenodd; clip-rule:evenodd"
viewBox="0 0 8669.86 8669.86"
 xmlns:xlink="http://www.w3.org/1999/xlink"
 xmlns:xodm="http://www.corel.com/coreldraw/odm/2003">
 <defs>
  <style type="text/css">
   <![CDATA[
    .fil0 {fill:white}
   ]]>
  </style>
 </defs>
 <g id="Layer_x0020_1">
  <metadata id="CorelCorpID_0Corel-Layer"/>
 </g>
 <g id="Layer_x0020_1_0">
  <metadata id="CorelCorpID_1Corel-Layer"/>
  <g id="_1756388296">
   <path class="fil0" d="M2966.27 3602.04c-159.02,-76.81 -210.9,-109.88 -239.69,-126.7 -28.81,-16.83 -34.52,-17.4 -36.8,-14.55 -2.27,2.86 -1.15,9.11 -1.42,207.86 -0.28,198.76 -2.01,589.98 -6.28,797.01 -4.27,207 -11.13,229.8 -27.37,243.78 -16.26,13.98 -41.91,19.11 -63.87,18.53 -21.96,-0.58 -40.21,-6.84 -149.41,-61.59 -109.21,-54.75 -309.38,-157.96 -413.73,-216.41 -104.38,-58.46 -112.94,-72.16 -120.35,-88.4 -7.42,-16.26 -13.69,-35.08 -17.66,-67.59 -4.01,-32.51 -5.73,-78.7 -5.99,-268.88 -0.3,-190.21 0.84,-524.4 1.41,-703.16 0.57,-178.8 0.57,-202.19 -1.41,-217.3 -2.02,-15.11 -6,-21.95 -23.38,-31.35 -17.4,-9.43 -48.21,-21.39 -232.11,-106.64 -183.93,-85.27 -520.96,-243.83 -699.18,-325.08 -178.22,-81.27 -197.59,-85.27 -220.96,-85.54 -23.4,-0.28 -50.78,3.12 -71.88,12.55 -21.09,9.4 -35.93,24.81 -48.76,39.06 -12.82,14.25 -23.66,27.37 -28.22,58.45 -4.57,31.08 -2.85,80.12 -3.43,166.24 -0.57,86.11 -3.42,209.3 -4.92,776 -1.49,566.69 -1.62,1576.9 3.29,2097.98 4.92,521.04 14.9,552.98 29.85,585.4 14.97,32.42 34.94,65.31 61.38,102.23 26.43,36.9 59.32,77.79 111.69,116.71 52.37,38.9 124.2,75.82 278.81,150.62 154.61,74.82 392.01,187.51 884.26,427.41 492.26,239.89 1239.37,606.96 1619.41,790.49 380.04,183.55 393.02,183.55 416.45,180.05 23.44,-3.49 57.36,-10.46 83.31,-26.93 25.92,-16.45 43.86,-42.37 54.34,-74.79 10.48,-32.41 13.47,-71.33 14.97,-348.64 1.5,-277.29 1.5,-792.98 2,-1335.11 0.5,-542.13 1.49,-1110.72 1.86,-1432.73 0.39,-322.05 0.15,-397.57 -8.64,-456.06 -8.81,-58.5 -26.15,-100 -49.53,-143.74 -23.4,-43.76 -52.8,-89.75 -89.01,-128.97 -36.2,-39.24 -79.2,-71.68 -131.6,-102.6 -52.43,-30.93 -114.28,-60.33 -278.28,-135.31 -163.98,-74.97 -430.13,-195.5 -589.15,-272.3z"/>
   <path class="fil0" d="M5067.09 7893.73c178.42,-86.76 502.85,-239.93 666.57,-319.15 163.7,-79.22 166.74,-84.5 168.25,-90.16 1.5,-5.65 1.5,-11.69 0.76,-268.23 -0.76,-256.51 -2.27,-763.49 -3.4,-1026.79 -1.13,-263.31 -1.91,-282.94 -8.31,-290.86 -6.42,-7.92 -18.47,-4.14 -105.23,36.61 -86.78,40.74 -248.22,118.43 -336.11,156.54 -87.92,38.11 -102.24,36.58 -115.07,29.04 -12.83,-7.55 -24.15,-21.12 -30.93,-39.23 -6.8,-18.1 -9.05,-40.74 -4.52,-65.25 4.52,-24.52 15.82,-50.93 82.22,-181.44 66.4,-130.54 187.87,-365.18 338.39,-663.93 150.51,-298.78 330.06,-661.68 424.36,-848.78 94.32,-187.12 103.36,-198.43 114.68,-204.82 11.33,-6.43 24.9,-7.96 41.52,-7.2 16.6,0.75 36.2,3.79 51.69,13.22 15.45,9.41 26.76,25.28 185.21,191.26 158.42,165.98 463.98,482.09 618.27,643.55 154.28,161.46 157.31,168.24 159.57,182.19 2.26,13.97 3.78,35.1 0.76,53.57 -3.02,18.48 -10.57,34.35 -25.28,50.19 -14.72,15.83 -36.58,31.68 -124.85,72.42 -88.28,40.74 -242.96,106.37 -324.82,141.08 -81.87,34.7 -90.9,38.48 -95.05,47.54 -4.17,9.04 -3.39,23.38 -1.51,283.67 1.89,260.3 4.9,766.53 6.79,1022.66 1.88,256.15 2.64,262.19 7.92,265.21 5.29,3.01 15.1,3.01 204.1,-88.67 188.98,-91.65 557.16,-275 756.71,-381.38 199.54,-106.37 230.5,-135.78 258.03,-173.88 27.54,-38.11 51.67,-84.89 69.04,-131.28 17.34,-46.4 27.91,-92.43 31.32,-698.25 3.39,-605.83 -0.4,-1771.49 -4.16,-2361.1 -3.77,-589.61 -7.55,-603.2 -16.6,-619.41 -9.06,-16.23 -23.39,-35.1 -45.26,-49.81 -21.89,-14.71 -51.33,-25.26 -90.92,-26.39 -39.61,-1.12 -89.42,7.16 -624.69,257.65 -535.3,250.49 -1556.1,743.14 -2082.34,1005.69 -526.23,262.56 -557.93,295.02 -584.32,331.23 -26.42,36.2 -47.54,76.18 -64.89,118.43 -17.35,42.24 -30.93,86.78 -38.84,237.29 -7.93,150.51 -10.21,407.03 -11.72,725.03 -1.5,318.01 -2.25,697.52 -3.77,1075.87 -1.5,378.36 -3.77,755.6 -4.51,1031.34 -0.76,275.76 0,450.05 4.91,549.26 4.9,99.21 13.94,123.35 29.8,140.7 15.84,17.37 38.47,27.92 69.03,33.57 30.55,5.66 69.02,6.42 106,0.38 36.97,-6.03 72.41,-18.86 106.38,-35.45 33.95,-16.59 66.39,-36.98 244.82,-123.73z"/>
   <path class="fil0" d="M2754.58 2415.85c-368.11,175.18 -510.49,246.7 -586.6,285.08 -76.13,38.39 -85.96,43.64 -98.1,42.67 -12.15,-0.99 -26.58,-8.22 -220.13,-103.36 -193.57,-95.13 -566.28,-278.21 -756.88,-377.93 -190.61,-99.74 -199.15,-116.15 -203.4,-134.84 -4.27,-18.7 -4.27,-39.71 1.98,-58.4 6.22,-18.7 18.68,-35.11 71.51,-68.89 52.81,-33.8 145.99,-84.98 680.43,-336.62 534.42,-251.64 1510.12,-703.71 2012.09,-933.69 501.95,-229.99 530.14,-237.85 569.52,-241.13 39.36,-3.28 89.88,-1.98 135.49,1.97 45.6,3.93 86.27,10.48 130.91,23.62 44.61,13.1 93.16,32.8 281.47,118.76 188.32,85.94 516.39,238.19 687.01,316.26 170.59,78.08 183.7,82.03 179.11,89.57 -4.59,7.54 -26.89,18.69 -251.29,126.63 -224.4,107.93 -650.92,312.66 -1161.06,554.46 -510.16,241.78 -1103.97,520.64 -1472.06,695.84z"/>
   <path class="fil0" d="M3367.84 2858.95c-215.13,100.43 -352.65,161.5 -423.4,193.16 -70.78,31.67 -74.75,33.94 -74.18,38.23 0.56,4.27 5.7,10.56 212.55,110.43 206.85,99.85 615.42,293.28 832.55,394.57 217.11,101.29 242.8,110.42 276.47,117.85 33.66,7.41 75.32,13.12 134.09,11.98 58.77,-1.14 134.68,-9.14 225.4,-38.82 90.73,-29.67 196.3,-81.02 354.08,-158.34 157.77,-77.32 367.75,-180.61 734.39,-357.21 366.61,-176.62 889.9,-426.54 1265.08,-609.42 375.18,-182.9 602.3,-298.74 719.56,-364.08 117.25,-65.34 124.68,-80.18 127.82,-97.86 3.12,-17.69 1.99,-38.23 -26.82,-65.34 -28.83,-27.11 -85.3,-60.76 -186.3,-113.54 -101.01,-52.8 -246.52,-124.69 -429.12,-210.85 -182.61,-86.17 -402.29,-186.59 -519.84,-241.36 -117.56,-54.79 -132.96,-63.93 -149.51,-64.77 -16.56,-0.87 -34.25,6.55 -145.51,57.34 -111.28,50.78 -316.13,144.93 -686.17,321.83 -370.05,176.88 -905.31,436.52 -1319.3,636.26 -413.99,199.7 -706.71,339.51 -921.84,439.94z"/>
  </g>
 </g>
</svg>
